# xmcd CD database file
#
# Track frame offsets:
#	150
#	24083
#	44319
#	65394
#	88585
#
# Disc length: 1507 seconds
#
# Revision: 1
# Processed by: cddbd v1.5.2PL0 Copyright (c) Steve Scherf et al.
# Submitted via: CDex 1.70beta2
#
DISCID=3105e105
DTITLE=AI - 大切なもの
DYEAR=2008
DGENRE=JPop
TTITLE0=大切なもの
TTITLE1=feel for you
TTITLE2=Touch the sky
TTITLE3=大切なもの - V.I.P Remix - 
TTITLE4=大切なもの - Live - 
EXTD=YEAR: 2008
EXTT0=
EXTT1=
EXTT2=
EXTT3=
EXTT4=
PLAYORDER=
